<mxfile host="Electron" modified="2025-03-11T13:21:25.262Z" agent="Mozilla/5.0 (Macintosh; Intel Mac OS X 10_15_7) AppleWebKit/537.36 (KHTML, like Gecko) draw.io/24.6.4 Chrome/124.0.6367.207 Electron/30.0.6 Safari/537.36" etag="O__SlfZ5I7xSh96DvRAW" version="24.6.4" type="device">
  <diagram name="Page-1" id="YimXa1FSQ-Ff7Xxbw_x4">
    <mxGraphModel dx="561" dy="396" grid="0" gridSize="10" guides="1" tooltips="1" connect="1" arrows="1" fold="1" page="1" pageScale="1" pageWidth="1100" pageHeight="850" math="0" shadow="0">
      <root>
        <mxCell id="0" />
        <mxCell id="1" parent="0" />
        <mxCell id="Tnm88RIQW7SJwEOPlLvu-1" value="&lt;span style=&quot;font-size: 16px;&quot;&gt;&lt;b style=&quot;&quot;&gt;&lt;font color=&quot;#666600&quot;&gt;8&lt;/font&gt;&lt;/b&gt;&lt;/span&gt;&lt;br&gt;&lt;div&gt;&lt;font color=&quot;#009900&quot;&gt;&lt;b&gt;F8&lt;/b&gt;&lt;/font&gt;&amp;nbsp; &amp;nbsp; &amp;nbsp;&lt;/div&gt;" style="whiteSpace=wrap;html=1;aspect=fixed;" parent="1" vertex="1">
          <mxGeometry x="237" y="206" width="40" height="40" as="geometry" />
        </mxCell>
        <mxCell id="Tnm88RIQW7SJwEOPlLvu-2" value="&lt;font color=&quot;#0000ff&quot;&gt;&lt;span style=&quot;font-size: 16px;&quot;&gt;&lt;b&gt;V&lt;/b&gt;&lt;/span&gt;&lt;/font&gt;&lt;br&gt;&lt;div&gt;&lt;font color=&quot;#009900&quot;&gt;&lt;b&gt;F12&lt;/b&gt;&lt;/font&gt;&amp;nbsp; &amp;nbsp;&amp;nbsp;&lt;/div&gt;" style="whiteSpace=wrap;html=1;aspect=fixed;" parent="1" vertex="1">
          <mxGeometry x="237" y="256" width="40" height="40" as="geometry" />
        </mxCell>
        <mxCell id="Tnm88RIQW7SJwEOPlLvu-3" value="&lt;font color=&quot;#0000ff&quot;&gt;&lt;span style=&quot;font-size: 16px;&quot;&gt;&lt;b&gt;S&lt;/b&gt;&lt;/span&gt;&lt;/font&gt;&lt;br&gt;&lt;div&gt;&lt;font style=&quot;background-color: initial;&quot; color=&quot;#009900&quot;&gt;&lt;b&gt;@&amp;nbsp;&lt;/b&gt;&lt;/font&gt;&lt;span style=&quot;background-color: initial;&quot;&gt;&amp;nbsp; &amp;nbsp;&lt;/span&gt;&amp;nbsp;&amp;nbsp;&lt;/div&gt;" style="whiteSpace=wrap;html=1;aspect=fixed;" parent="1" vertex="1">
          <mxGeometry x="237" y="306" width="40" height="40" as="geometry" />
        </mxCell>
        <mxCell id="Tnm88RIQW7SJwEOPlLvu-4" value="&lt;font color=&quot;#0000ff&quot;&gt;&lt;span style=&quot;font-size: 16px;&quot;&gt;&lt;b&gt;Z&lt;/b&gt;&lt;/span&gt;&lt;/font&gt;&lt;b style=&quot;background-color: initial; color: rgb(0, 153, 0);&quot;&gt;&lt;br class=&quot;Apple-interchange-newline&quot;&gt;Esc&lt;/b&gt;&amp;nbsp;&amp;nbsp;" style="whiteSpace=wrap;html=1;aspect=fixed;" parent="1" vertex="1">
          <mxGeometry x="237" y="356" width="40" height="40" as="geometry" />
        </mxCell>
        <mxCell id="Tnm88RIQW7SJwEOPlLvu-5" value="&lt;span style=&quot;font-size: 16px;&quot;&gt;&lt;b style=&quot;&quot;&gt;&lt;font color=&quot;#666600&quot;&gt;6&lt;/font&gt;&lt;/b&gt;&lt;/span&gt;&lt;br&gt;&lt;div&gt;&lt;font color=&quot;#009900&quot;&gt;&lt;b&gt;F6&lt;/b&gt;&lt;/font&gt;&amp;nbsp; &amp;nbsp; &amp;nbsp;&lt;/div&gt;" style="whiteSpace=wrap;html=1;aspect=fixed;" parent="1" vertex="1">
          <mxGeometry x="287" y="186" width="40" height="40" as="geometry" />
        </mxCell>
        <mxCell id="Tnm88RIQW7SJwEOPlLvu-6" value="&lt;font color=&quot;#0000ff&quot;&gt;&lt;span style=&quot;font-size: 16px;&quot;&gt;&lt;b&gt;M&lt;/b&gt;&lt;/span&gt;&lt;/font&gt;&lt;br&gt;&lt;div&gt;&lt;font color=&quot;#009900&quot;&gt;&lt;b&gt;_&amp;nbsp;&amp;nbsp;&lt;/b&gt;&lt;/font&gt;&amp;nbsp; &amp;nbsp;&amp;nbsp;&lt;/div&gt;" style="whiteSpace=wrap;html=1;aspect=fixed;" parent="1" vertex="1">
          <mxGeometry x="287" y="236" width="40" height="40" as="geometry" />
        </mxCell>
        <mxCell id="Tnm88RIQW7SJwEOPlLvu-7" value="&lt;font color=&quot;#0000ff&quot;&gt;&lt;span style=&quot;font-size: 16px;&quot;&gt;&lt;b&gt;T&lt;/b&gt;&lt;/span&gt;&lt;/font&gt;&lt;br&gt;&lt;div&gt;&lt;font color=&quot;#009900&quot;&gt;&lt;b&gt;^&amp;nbsp;&amp;nbsp;&lt;/b&gt;&lt;/font&gt;&amp;nbsp; Alt&lt;/div&gt;" style="whiteSpace=wrap;html=1;aspect=fixed;" parent="1" vertex="1">
          <mxGeometry x="287" y="286" width="40" height="40" as="geometry" />
        </mxCell>
        <mxCell id="Tnm88RIQW7SJwEOPlLvu-8" value="&lt;font color=&quot;#0000ff&quot;&gt;&lt;span style=&quot;font-size: 16px;&quot;&gt;&lt;b&gt;K&lt;/b&gt;&lt;/span&gt;&lt;/font&gt;&lt;br&gt;&lt;div&gt;&lt;font color=&quot;#009900&quot;&gt;&lt;b&gt;#&amp;nbsp;&amp;nbsp;&lt;/b&gt;&lt;/font&gt;&amp;nbsp; &amp;nbsp;&amp;nbsp;&lt;/div&gt;" style="whiteSpace=wrap;html=1;aspect=fixed;" parent="1" vertex="1">
          <mxGeometry x="287" y="336" width="40" height="40" as="geometry" />
        </mxCell>
        <mxCell id="Tnm88RIQW7SJwEOPlLvu-9" value="&lt;span style=&quot;font-size: 16px;&quot;&gt;&lt;b style=&quot;&quot;&gt;&lt;font color=&quot;#666600&quot;&gt;⬇︎&lt;/font&gt;&lt;/b&gt;&lt;/span&gt;&lt;br&gt;&lt;div&gt;&lt;font color=&quot;#009900&quot;&gt;&lt;b&gt;↧&amp;nbsp;&amp;nbsp;&lt;/b&gt;&lt;/font&gt;&amp;nbsp; &amp;nbsp;&amp;nbsp;&lt;/div&gt;" style="whiteSpace=wrap;html=1;aspect=fixed;" parent="1" vertex="1">
          <mxGeometry x="287" y="386" width="40" height="40" as="geometry" />
        </mxCell>
        <mxCell id="Tnm88RIQW7SJwEOPlLvu-10" value="&lt;span style=&quot;font-size: 16px;&quot;&gt;&lt;b style=&quot;&quot;&gt;&lt;font color=&quot;#666600&quot;&gt;4&lt;/font&gt;&lt;/b&gt;&lt;/span&gt;&lt;br&gt;&lt;div&gt;&lt;font color=&quot;#009900&quot;&gt;&lt;b&gt;F4&lt;/b&gt;&lt;/font&gt;&amp;nbsp; &amp;nbsp; &amp;nbsp;&lt;/div&gt;" style="whiteSpace=wrap;html=1;aspect=fixed;" parent="1" vertex="1">
          <mxGeometry x="337" y="166" width="40" height="40" as="geometry" />
        </mxCell>
        <mxCell id="Tnm88RIQW7SJwEOPlLvu-11" value="&lt;font color=&quot;#0000ff&quot;&gt;&lt;span style=&quot;font-size: 16px;&quot;&gt;&lt;b&gt;L&lt;/b&gt;&lt;/span&gt;&lt;/font&gt;&lt;br&gt;&lt;div&gt;&lt;font color=&quot;#009900&quot;&gt;&lt;b&gt;&amp;gt;&amp;nbsp;&amp;nbsp;&lt;/b&gt;&lt;/font&gt;&amp;nbsp; &amp;nbsp;&amp;nbsp;&lt;/div&gt;" style="whiteSpace=wrap;html=1;aspect=fixed;" parent="1" vertex="1">
          <mxGeometry x="337" y="216" width="40" height="40" as="geometry" />
        </mxCell>
        <mxCell id="Tnm88RIQW7SJwEOPlLvu-12" value="&lt;font color=&quot;#0000ff&quot;&gt;&lt;span style=&quot;font-size: 16px;&quot;&gt;&lt;b&gt;R&lt;/b&gt;&lt;/span&gt;&lt;/font&gt;&lt;br&gt;&lt;div&gt;&lt;font color=&quot;#009900&quot;&gt;&lt;b&gt;-&amp;nbsp;&amp;nbsp;&lt;/b&gt;&lt;/font&gt;Sym&lt;/div&gt;" style="whiteSpace=wrap;html=1;aspect=fixed;" parent="1" vertex="1">
          <mxGeometry x="337" y="266" width="40" height="40" as="geometry" />
        </mxCell>
        <mxCell id="Tnm88RIQW7SJwEOPlLvu-13" value="&lt;font color=&quot;#0000ff&quot;&gt;&lt;span style=&quot;font-size: 16px;&quot;&gt;&lt;b&gt;Q&lt;/b&gt;&lt;/span&gt;&lt;/font&gt;&lt;br&gt;&lt;div&gt;&lt;font color=&quot;#009900&quot;&gt;&lt;b&gt;/&amp;nbsp;&amp;nbsp;&lt;/b&gt;&lt;/font&gt;&amp;nbsp; &amp;nbsp;&amp;nbsp;&lt;/div&gt;" style="whiteSpace=wrap;html=1;aspect=fixed;" parent="1" vertex="1">
          <mxGeometry x="337" y="316" width="40" height="40" as="geometry" />
        </mxCell>
        <mxCell id="Tnm88RIQW7SJwEOPlLvu-14" value="&lt;span style=&quot;font-size: 16px;&quot;&gt;&lt;b style=&quot;&quot;&gt;&lt;font color=&quot;#666600&quot;&gt;⬆︎&lt;/font&gt;&lt;/b&gt;&lt;/span&gt;&lt;br&gt;&lt;div&gt;&lt;font color=&quot;#009900&quot;&gt;&lt;b&gt;↥&amp;nbsp; &amp;nbsp;&amp;nbsp;&lt;/b&gt;&lt;/font&gt;&amp;nbsp; &amp;nbsp;&amp;nbsp;&lt;/div&gt;" style="whiteSpace=wrap;html=1;aspect=fixed;" parent="1" vertex="1">
          <mxGeometry x="337" y="366" width="40" height="40" as="geometry" />
        </mxCell>
        <mxCell id="Tnm88RIQW7SJwEOPlLvu-16" value="&lt;span style=&quot;font-size: 16px;&quot;&gt;&lt;b style=&quot;&quot;&gt;&lt;font color=&quot;#666600&quot;&gt;2&lt;/font&gt;&lt;/b&gt;&lt;/span&gt;&lt;br&gt;&lt;div&gt;&lt;font color=&quot;#009900&quot;&gt;&lt;b&gt;F2&lt;/b&gt;&lt;/font&gt;&amp;nbsp; &amp;nbsp; &amp;nbsp;&lt;/div&gt;" style="whiteSpace=wrap;html=1;aspect=fixed;" parent="1" vertex="1">
          <mxGeometry x="387" y="196" width="40" height="40" as="geometry" />
        </mxCell>
        <mxCell id="Tnm88RIQW7SJwEOPlLvu-17" value="&lt;font color=&quot;#0000ff&quot;&gt;&lt;span style=&quot;font-size: 16px;&quot;&gt;&lt;b&gt;C&lt;/b&gt;&lt;/span&gt;&lt;/font&gt;&lt;br&gt;&lt;div&gt;&lt;font color=&quot;#009900&quot;&gt;&lt;b&gt;&amp;lt;&amp;nbsp; &amp;nbsp;&lt;/b&gt;&lt;/font&gt; &amp;nbsp; &amp;nbsp;&lt;/div&gt;" style="whiteSpace=wrap;html=1;aspect=fixed;" parent="1" vertex="1">
          <mxGeometry x="387" y="246" width="40" height="40" as="geometry" />
        </mxCell>
        <mxCell id="Tnm88RIQW7SJwEOPlLvu-18" value="&lt;font color=&quot;#0000ff&quot;&gt;&lt;span style=&quot;font-size: 16px;&quot;&gt;&lt;b&gt;D&lt;/b&gt;&lt;/span&gt;&lt;/font&gt;&lt;br&gt;&lt;div&gt;&lt;font color=&quot;#009900&quot;&gt;&lt;b&gt;+&amp;nbsp; &amp;nbsp;&lt;/b&gt;&lt;/font&gt;Gui&lt;/div&gt;" style="whiteSpace=wrap;html=1;aspect=fixed;" parent="1" vertex="1">
          <mxGeometry x="387" y="296" width="40" height="40" as="geometry" />
        </mxCell>
        <mxCell id="Tnm88RIQW7SJwEOPlLvu-19" value="&lt;font color=&quot;#0000ff&quot;&gt;&lt;span style=&quot;font-size: 16px;&quot;&gt;&lt;b&gt;G&lt;/b&gt;&lt;/span&gt;&lt;/font&gt;&lt;br&gt;&lt;div&gt;&lt;font color=&quot;#009900&quot;&gt;&lt;b&gt;*&amp;nbsp; &amp;nbsp;&lt;/b&gt;&lt;/font&gt;&amp;nbsp; &amp;nbsp;&amp;nbsp;&lt;/div&gt;" style="whiteSpace=wrap;html=1;aspect=fixed;" parent="1" vertex="1">
          <mxGeometry x="387" y="346" width="40" height="40" as="geometry" />
        </mxCell>
        <mxCell id="Tnm88RIQW7SJwEOPlLvu-25" value="&lt;b&gt;&lt;font color=&quot;#666600&quot; style=&quot;font-size: 16px;&quot;&gt;0&lt;/font&gt;&lt;/b&gt;&lt;div&gt;&lt;font color=&quot;#009900&quot;&gt;&lt;b&gt;F10&lt;/b&gt;&lt;/font&gt;&amp;nbsp; &amp;nbsp;&amp;nbsp;&lt;/div&gt;" style="whiteSpace=wrap;html=1;aspect=fixed;" parent="1" vertex="1">
          <mxGeometry x="437" y="206" width="40" height="40" as="geometry" />
        </mxCell>
        <mxCell id="Tnm88RIQW7SJwEOPlLvu-26" value="&lt;font color=&quot;#0000ff&quot;&gt;&lt;span style=&quot;font-size: 16px;&quot;&gt;&lt;b&gt;P&lt;/b&gt;&lt;/span&gt;&lt;/font&gt;&lt;br&gt;&lt;div&gt;&lt;font color=&quot;#009900&quot;&gt;&lt;b&gt;`&amp;nbsp;&amp;nbsp;&lt;/b&gt;&lt;/font&gt;&amp;nbsp; &amp;nbsp;&amp;nbsp;&lt;/div&gt;" style="whiteSpace=wrap;html=1;aspect=fixed;" parent="1" vertex="1">
          <mxGeometry x="437" y="256" width="40" height="40" as="geometry" />
        </mxCell>
        <mxCell id="Tnm88RIQW7SJwEOPlLvu-27" value="&lt;font color=&quot;#0000ff&quot;&gt;&lt;span style=&quot;font-size: 16px;&quot;&gt;&lt;b&gt;Y&lt;/b&gt;&lt;/span&gt;&lt;/font&gt;&lt;br&gt;&lt;div&gt;&lt;font color=&quot;#009900&quot;&gt;&lt;b&gt;=&amp;nbsp;&amp;nbsp;&lt;/b&gt;&lt;/font&gt;Gui&lt;/div&gt;" style="whiteSpace=wrap;html=1;aspect=fixed;" parent="1" vertex="1">
          <mxGeometry x="437" y="306" width="40" height="40" as="geometry" />
        </mxCell>
        <mxCell id="Tnm88RIQW7SJwEOPlLvu-28" value="&lt;font color=&quot;#0000ff&quot;&gt;&lt;span style=&quot;font-size: 16px;&quot;&gt;&lt;b&gt;W&lt;/b&gt;&lt;/span&gt;&lt;/font&gt;&lt;br&gt;&lt;div&gt;&lt;font color=&quot;#009900&quot;&gt;&lt;b&gt;\&amp;nbsp;&amp;nbsp;&lt;/b&gt;&lt;/font&gt;&amp;nbsp; &amp;nbsp;&amp;nbsp;&lt;/div&gt;" style="whiteSpace=wrap;html=1;aspect=fixed;" parent="1" vertex="1">
          <mxGeometry x="437" y="356" width="40" height="40" as="geometry" />
        </mxCell>
        <mxCell id="Tnm88RIQW7SJwEOPlLvu-29" value="&lt;span style=&quot;font-size: 16px;&quot;&gt;&lt;b style=&quot;&quot;&gt;&lt;font color=&quot;#666600&quot;&gt;9&lt;/font&gt;&lt;/b&gt;&lt;/span&gt;&lt;br&gt;&lt;div&gt;&lt;font color=&quot;#009900&quot;&gt;&lt;b&gt;F9&lt;/b&gt;&lt;/font&gt;&amp;nbsp; &amp;nbsp; &amp;nbsp;&lt;/div&gt;" style="whiteSpace=wrap;html=1;aspect=fixed;" parent="1" vertex="1">
          <mxGeometry x="867" y="206" width="40" height="40" as="geometry" />
        </mxCell>
        <mxCell id="Tnm88RIQW7SJwEOPlLvu-30" value="&lt;font color=&quot;#0000ff&quot;&gt;&lt;span style=&quot;font-size: 16px;&quot;&gt;&lt;b&gt;J&lt;/b&gt;&lt;/span&gt;&lt;/font&gt;&lt;br&gt;&lt;div&gt;&lt;font color=&quot;#009900&quot;&gt;&lt;b&gt;F11&lt;/b&gt;&lt;/font&gt;&amp;nbsp; &amp;nbsp;&amp;nbsp;&lt;/div&gt;" style="whiteSpace=wrap;html=1;aspect=fixed;" parent="1" vertex="1">
          <mxGeometry x="867" y="256" width="40" height="40" as="geometry" />
        </mxCell>
        <mxCell id="Tnm88RIQW7SJwEOPlLvu-31" value="&lt;font color=&quot;#0000ff&quot;&gt;&lt;span style=&quot;font-size: 16px;&quot;&gt;&lt;b&gt;I&lt;/b&gt;&lt;/span&gt;&lt;/font&gt;&lt;br&gt;&lt;div&gt;&lt;font color=&quot;#009900&quot;&gt;&lt;b&gt;%&amp;nbsp;&amp;nbsp;&lt;/b&gt;&lt;/font&gt;&amp;nbsp; &amp;nbsp;&amp;nbsp;&lt;/div&gt;" style="whiteSpace=wrap;html=1;aspect=fixed;" parent="1" vertex="1">
          <mxGeometry x="867" y="306" width="40" height="40" as="geometry" />
        </mxCell>
        <mxCell id="Tnm88RIQW7SJwEOPlLvu-32" value="&lt;font color=&quot;#0000ff&quot;&gt;&lt;span style=&quot;font-size: 16px;&quot;&gt;&lt;b&gt;, ?&lt;/b&gt;&lt;/span&gt;&lt;/font&gt;&lt;br&gt;&lt;div&gt;&lt;font color=&quot;#009900&quot;&gt;&lt;b&gt;&amp;nbsp; &amp;nbsp;&lt;/b&gt;&lt;/font&gt;&amp;nbsp; &amp;nbsp;&amp;nbsp;&lt;/div&gt;" style="whiteSpace=wrap;html=1;aspect=fixed;" parent="1" vertex="1">
          <mxGeometry x="867" y="356" width="40" height="40" as="geometry" />
        </mxCell>
        <mxCell id="Tnm88RIQW7SJwEOPlLvu-33" value="&lt;span style=&quot;font-size: 16px;&quot;&gt;&lt;b style=&quot;&quot;&gt;&lt;font color=&quot;#666600&quot;&gt;7&lt;/font&gt;&lt;/b&gt;&lt;/span&gt;&lt;br&gt;&lt;div&gt;&lt;font color=&quot;#009900&quot;&gt;&lt;b&gt;F7&lt;/b&gt;&lt;/font&gt;&amp;nbsp; &amp;nbsp; &amp;nbsp;&lt;/div&gt;" style="whiteSpace=wrap;html=1;aspect=fixed;" parent="1" vertex="1">
          <mxGeometry x="817" y="186" width="40" height="40" as="geometry" />
        </mxCell>
        <mxCell id="Tnm88RIQW7SJwEOPlLvu-34" value="&lt;font color=&quot;#0000ff&quot;&gt;&lt;span style=&quot;font-size: 16px;&quot;&gt;&lt;b&gt;U&lt;/b&gt;&lt;/span&gt;&lt;/font&gt;&lt;br&gt;&lt;div&gt;&lt;font color=&quot;#009900&quot;&gt;&lt;b&gt;Esc&lt;/b&gt;&lt;/font&gt;&amp;nbsp; &amp;nbsp;&amp;nbsp;&lt;/div&gt;" style="whiteSpace=wrap;html=1;aspect=fixed;" parent="1" vertex="1">
          <mxGeometry x="817" y="236" width="40" height="40" as="geometry" />
        </mxCell>
        <mxCell id="Tnm88RIQW7SJwEOPlLvu-35" value="&lt;font color=&quot;#0000ff&quot;&gt;&lt;span style=&quot;font-size: 16px;&quot;&gt;&lt;b&gt;E&lt;/b&gt;&lt;/span&gt;&lt;/font&gt;&lt;br&gt;&lt;div&gt;&lt;font color=&quot;#009900&quot;&gt;&lt;b&gt;$&amp;nbsp;&amp;nbsp;&lt;/b&gt;&lt;/font&gt;&amp;nbsp; Alt&lt;/div&gt;" style="whiteSpace=wrap;html=1;aspect=fixed;" parent="1" vertex="1">
          <mxGeometry x="817" y="286" width="40" height="40" as="geometry" />
        </mxCell>
        <mxCell id="Tnm88RIQW7SJwEOPlLvu-36" value="&lt;font color=&quot;#0000ff&quot;&gt;&lt;span style=&quot;font-size: 16px;&quot;&gt;&lt;b&gt;; :&lt;/b&gt;&lt;/span&gt;&lt;/font&gt;&lt;br&gt;&lt;div&gt;&lt;font color=&quot;#009900&quot;&gt;&lt;b&gt;MC&amp;nbsp;&lt;/b&gt;&lt;/font&gt;&amp;nbsp; &amp;nbsp;&lt;/div&gt;" style="whiteSpace=wrap;html=1;aspect=fixed;" parent="1" vertex="1">
          <mxGeometry x="817" y="336" width="40" height="40" as="geometry" />
        </mxCell>
        <mxCell id="Tnm88RIQW7SJwEOPlLvu-37" value="&lt;span style=&quot;font-size: 16px;&quot;&gt;&lt;b style=&quot;&quot;&gt;&lt;font color=&quot;#666600&quot;&gt;➡︎&lt;/font&gt;&lt;/b&gt;&lt;/span&gt;&lt;br&gt;&lt;div&gt;&lt;font color=&quot;#009900&quot;&gt;&lt;b&gt;RC&amp;nbsp;&amp;nbsp;&lt;/b&gt;&lt;/font&gt;&amp;nbsp; &amp;nbsp;&amp;nbsp;&lt;/div&gt;" style="whiteSpace=wrap;html=1;aspect=fixed;" parent="1" vertex="1">
          <mxGeometry x="817" y="386" width="40" height="40" as="geometry" />
        </mxCell>
        <mxCell id="Tnm88RIQW7SJwEOPlLvu-38" value="&lt;span style=&quot;font-size: 16px;&quot;&gt;&lt;b style=&quot;&quot;&gt;&lt;font color=&quot;#666600&quot;&gt;5&lt;/font&gt;&lt;/b&gt;&lt;/span&gt;&lt;br&gt;&lt;div&gt;&lt;font color=&quot;#009900&quot;&gt;&lt;b&gt;F5&lt;/b&gt;&lt;/font&gt;&amp;nbsp; &amp;nbsp; &amp;nbsp;&lt;/div&gt;" style="whiteSpace=wrap;html=1;aspect=fixed;" parent="1" vertex="1">
          <mxGeometry x="767" y="166" width="40" height="40" as="geometry" />
        </mxCell>
        <mxCell id="Tnm88RIQW7SJwEOPlLvu-39" value="&lt;font color=&quot;#0000ff&quot;&gt;&lt;span style=&quot;font-size: 16px;&quot;&gt;&lt;b&gt;O&lt;/b&gt;&lt;/span&gt;&lt;/font&gt;&lt;br&gt;&lt;div&gt;&lt;font color=&quot;#009900&quot;&gt;&lt;b&gt;[&amp;nbsp;&amp;nbsp;&lt;/b&gt;&lt;/font&gt;&amp;nbsp; &amp;nbsp;&amp;nbsp;&lt;/div&gt;" style="whiteSpace=wrap;html=1;aspect=fixed;" parent="1" vertex="1">
          <mxGeometry x="767" y="216" width="40" height="40" as="geometry" />
        </mxCell>
        <mxCell id="Tnm88RIQW7SJwEOPlLvu-40" value="&lt;font color=&quot;#0000ff&quot;&gt;&lt;span style=&quot;font-size: 16px;&quot;&gt;&lt;b&gt;A&lt;/b&gt;&lt;/span&gt;&lt;/font&gt;&lt;br&gt;&lt;div&gt;&lt;font color=&quot;#009900&quot;&gt;&lt;b&gt;(&amp;nbsp;&amp;nbsp;&lt;/b&gt;&lt;/font&gt;Sym&lt;/div&gt;" style="whiteSpace=wrap;html=1;aspect=fixed;" parent="1" vertex="1">
          <mxGeometry x="767" y="266" width="40" height="40" as="geometry" />
        </mxCell>
        <mxCell id="Tnm88RIQW7SJwEOPlLvu-41" value="&lt;font color=&quot;#0000ff&quot;&gt;&lt;span style=&quot;font-size: 16px;&quot;&gt;&lt;b&gt;&#39; &quot;&lt;/b&gt;&lt;/span&gt;&lt;/font&gt;&lt;br&gt;&lt;div&gt;&lt;font color=&quot;#009900&quot;&gt;&lt;b&gt;{&amp;nbsp; &amp;nbsp;&lt;/b&gt;&lt;/font&gt;&amp;nbsp; &amp;nbsp;&amp;nbsp;&lt;/div&gt;" style="whiteSpace=wrap;html=1;aspect=fixed;" parent="1" vertex="1">
          <mxGeometry x="767" y="316" width="40" height="40" as="geometry" />
        </mxCell>
        <mxCell id="Tnm88RIQW7SJwEOPlLvu-42" value="&lt;span style=&quot;font-size: 16px;&quot;&gt;&lt;b style=&quot;&quot;&gt;&lt;font color=&quot;#666600&quot;&gt;⬅︎&lt;/font&gt;&lt;/b&gt;&lt;/span&gt;&lt;br&gt;&lt;div&gt;&lt;font color=&quot;#009900&quot;&gt;&lt;b&gt;LC&amp;nbsp;&amp;nbsp;&lt;/b&gt;&lt;/font&gt; &amp;nbsp; &amp;nbsp;&lt;/div&gt;" style="whiteSpace=wrap;html=1;aspect=fixed;" parent="1" vertex="1">
          <mxGeometry x="767" y="366" width="40" height="40" as="geometry" />
        </mxCell>
        <mxCell id="Tnm88RIQW7SJwEOPlLvu-43" value="&lt;span style=&quot;font-size: 16px;&quot;&gt;&lt;b style=&quot;&quot;&gt;&lt;font color=&quot;#666600&quot;&gt;1&lt;/font&gt;&lt;/b&gt;&lt;/span&gt;&lt;br&gt;&lt;div&gt;&lt;font color=&quot;#009900&quot;&gt;&lt;b&gt;F1&lt;/b&gt;&lt;/font&gt;&amp;nbsp; &amp;nbsp; &amp;nbsp;&lt;/div&gt;" style="whiteSpace=wrap;html=1;aspect=fixed;" parent="1" vertex="1">
          <mxGeometry x="667" y="206" width="40" height="40" as="geometry" />
        </mxCell>
        <mxCell id="Tnm88RIQW7SJwEOPlLvu-44" value="&lt;font color=&quot;#0000ff&quot;&gt;&lt;span style=&quot;font-size: 16px;&quot;&gt;&lt;b&gt;X&lt;/b&gt;&lt;/span&gt;&lt;/font&gt;&lt;br&gt;&lt;div&gt;&lt;font color=&quot;#009900&quot;&gt;&lt;b&gt;&amp;amp;&amp;nbsp;&lt;/b&gt;&lt;/font&gt;&amp;nbsp; &amp;nbsp;&amp;nbsp;&lt;/div&gt;" style="whiteSpace=wrap;html=1;aspect=fixed;" parent="1" vertex="1">
          <mxGeometry x="667" y="256" width="40" height="40" as="geometry" />
        </mxCell>
        <mxCell id="Tnm88RIQW7SJwEOPlLvu-45" value="&lt;font color=&quot;#0000ff&quot;&gt;&lt;span style=&quot;font-size: 16px;&quot;&gt;&lt;b&gt;. !&lt;/b&gt;&lt;/span&gt;&lt;/font&gt;&lt;br&gt;&lt;div&gt;&lt;font color=&quot;#009900&quot;&gt;&lt;b&gt;|&amp;nbsp;&amp;nbsp;&lt;/b&gt;&lt;/font&gt;&amp;nbsp;Gui&lt;/div&gt;" style="whiteSpace=wrap;html=1;aspect=fixed;" parent="1" vertex="1">
          <mxGeometry x="667" y="306" width="40" height="40" as="geometry" />
        </mxCell>
        <mxCell id="Tnm88RIQW7SJwEOPlLvu-46" value="&lt;font color=&quot;#0000ff&quot;&gt;&lt;span style=&quot;font-size: 16px;&quot;&gt;&lt;b&gt;B&lt;/b&gt;&lt;/span&gt;&lt;/font&gt;&lt;br&gt;&lt;div&gt;&lt;font color=&quot;#009900&quot;&gt;&lt;b&gt;~&amp;nbsp;&amp;nbsp;&lt;/b&gt;&lt;/font&gt;&amp;nbsp; &amp;nbsp;&amp;nbsp;&lt;/div&gt;" style="whiteSpace=wrap;html=1;aspect=fixed;" parent="1" vertex="1">
          <mxGeometry x="667" y="356" width="40" height="40" as="geometry" />
        </mxCell>
        <mxCell id="Tnm88RIQW7SJwEOPlLvu-47" value="&lt;span style=&quot;font-size: 16px;&quot;&gt;&lt;b style=&quot;&quot;&gt;&lt;font color=&quot;#666600&quot;&gt;3&lt;/font&gt;&lt;/b&gt;&lt;/span&gt;&lt;br&gt;&lt;div&gt;&lt;font color=&quot;#009900&quot;&gt;&lt;b&gt;F3&lt;/b&gt;&lt;/font&gt;&amp;nbsp; &amp;nbsp; &amp;nbsp;&lt;/div&gt;" style="whiteSpace=wrap;html=1;aspect=fixed;" parent="1" vertex="1">
          <mxGeometry x="717" y="196" width="40" height="40" as="geometry" />
        </mxCell>
        <mxCell id="Tnm88RIQW7SJwEOPlLvu-48" value="&lt;font color=&quot;#0000ff&quot;&gt;&lt;span style=&quot;font-size: 16px;&quot;&gt;&lt;b&gt;F&lt;/b&gt;&lt;/span&gt;&lt;/font&gt;&lt;br&gt;&lt;div&gt;&lt;font color=&quot;#009900&quot;&gt;&lt;b&gt;]&amp;nbsp;&amp;nbsp;&lt;/b&gt;&lt;/font&gt;&amp;nbsp; &amp;nbsp;&amp;nbsp;&lt;/div&gt;" style="whiteSpace=wrap;html=1;aspect=fixed;" parent="1" vertex="1">
          <mxGeometry x="717" y="246" width="40" height="40" as="geometry" />
        </mxCell>
        <mxCell id="Tnm88RIQW7SJwEOPlLvu-49" value="&lt;font color=&quot;#0000ff&quot;&gt;&lt;span style=&quot;font-size: 16px;&quot;&gt;&lt;b&gt;N&lt;/b&gt;&lt;/span&gt;&lt;/font&gt;&lt;br&gt;&lt;div&gt;&lt;font color=&quot;#009900&quot;&gt;&lt;b&gt;)&amp;nbsp;&amp;nbsp;&lt;/b&gt;&lt;/font&gt;Ctrl&amp;nbsp;&lt;/div&gt;" style="whiteSpace=wrap;html=1;aspect=fixed;" parent="1" vertex="1">
          <mxGeometry x="717" y="296" width="40" height="40" as="geometry" />
        </mxCell>
        <mxCell id="Tnm88RIQW7SJwEOPlLvu-50" value="&lt;font color=&quot;#0000ff&quot;&gt;&lt;span style=&quot;font-size: 16px;&quot;&gt;&lt;b&gt;H&lt;/b&gt;&lt;/span&gt;&lt;/font&gt;&lt;br&gt;&lt;div&gt;&lt;font color=&quot;#009900&quot;&gt;&lt;b&gt;}&amp;nbsp;&amp;nbsp;&lt;/b&gt;&lt;/font&gt;&amp;nbsp; &amp;nbsp;&amp;nbsp;&lt;/div&gt;" style="whiteSpace=wrap;html=1;aspect=fixed;" parent="1" vertex="1">
          <mxGeometry x="717" y="346" width="40" height="40" as="geometry" />
        </mxCell>
        <mxCell id="Tnm88RIQW7SJwEOPlLvu-51" value="&lt;font color=&quot;#0000ff&quot;&gt;&lt;span style=&quot;font-size: 16px;&quot;&gt;&lt;b&gt;⇧&lt;/b&gt;&lt;/span&gt;&lt;/font&gt;&lt;br&gt;&lt;div&gt;&amp;nbsp; &amp;nbsp;&amp;nbsp;&lt;/div&gt;" style="whiteSpace=wrap;html=1;aspect=fixed;" parent="1" vertex="1">
          <mxGeometry x="407" y="416" width="40" height="40" as="geometry" />
        </mxCell>
        <mxCell id="Tnm88RIQW7SJwEOPlLvu-52" value="&lt;font color=&quot;#0000ff&quot;&gt;&lt;span style=&quot;font-size: 16px;&quot;&gt;&lt;b&gt;↵&lt;/b&gt;&lt;/span&gt;&lt;/font&gt;&lt;br&gt;&lt;span style=&quot;background-color: initial;&quot;&gt;&amp;nbsp; &amp;nbsp;&amp;nbsp;&lt;/span&gt;" style="whiteSpace=wrap;html=1;aspect=fixed;" parent="1" vertex="1">
          <mxGeometry x="457" y="446" width="40" height="40" as="geometry" />
        </mxCell>
        <mxCell id="Tnm88RIQW7SJwEOPlLvu-53" value="&lt;b&gt;&lt;font style=&quot;font-size: 16px;&quot; color=&quot;#0000ff&quot;&gt;Sym&lt;/font&gt;&lt;/b&gt;&lt;div&gt;&amp;nbsp; &amp;nbsp;&lt;/div&gt;" style="whiteSpace=wrap;html=1;aspect=fixed;" parent="1" vertex="1">
          <mxGeometry x="507" y="466" width="40" height="40" as="geometry" />
        </mxCell>
        <mxCell id="Tnm88RIQW7SJwEOPlLvu-54" value="&lt;font color=&quot;#0000ff&quot;&gt;&lt;span style=&quot;font-size: 16px;&quot;&gt;&lt;b&gt;Bsp&lt;/b&gt;&lt;/span&gt;&lt;/font&gt;&lt;br&gt;&lt;div&gt;&lt;font color=&quot;#009900&quot;&gt;&lt;b&gt;Del&lt;/b&gt;&lt;/font&gt;&amp;nbsp; &amp;nbsp;&amp;nbsp;&lt;/div&gt;" style="whiteSpace=wrap;html=1;aspect=fixed;" parent="1" vertex="1">
          <mxGeometry x="597" y="466" width="40" height="40" as="geometry" />
        </mxCell>
        <mxCell id="Tnm88RIQW7SJwEOPlLvu-55" value="&lt;b&gt;&lt;font style=&quot;font-size: 16px;&quot; color=&quot;#0000ff&quot;&gt;SP&lt;/font&gt;&lt;/b&gt;&lt;div&gt;&lt;font color=&quot;#009900&quot;&gt;&lt;b&gt;Tab&lt;/b&gt;&lt;/font&gt;&amp;nbsp; &amp;nbsp;&amp;nbsp;&lt;/div&gt;" style="whiteSpace=wrap;html=1;aspect=fixed;" parent="1" vertex="1">
          <mxGeometry x="647" y="446" width="40" height="40" as="geometry" />
        </mxCell>
        <mxCell id="Tnm88RIQW7SJwEOPlLvu-56" value="&lt;font color=&quot;#0000ff&quot;&gt;&lt;span style=&quot;font-size: 16px;&quot;&gt;&lt;b&gt;Ctrl&lt;/b&gt;&lt;/span&gt;&lt;/font&gt;&lt;br&gt;&lt;div&gt;&lt;font color=&quot;#009900&quot;&gt;&lt;b&gt;Esc&lt;/b&gt;&lt;/font&gt;&amp;nbsp; &amp;nbsp;&amp;nbsp;&lt;/div&gt;" style="whiteSpace=wrap;html=1;aspect=fixed;" parent="1" vertex="1">
          <mxGeometry x="697" y="416" width="40" height="40" as="geometry" />
        </mxCell>
      </root>
    </mxGraphModel>
  </diagram>
</mxfile>
